<svg xmlns="http://www.w3.org/2000/svg" width="1200" height="630" viewBox="0 0 1200 630" role="img" aria-labelledby="title desc">
  <title id="title">StructuralDesign.ae - Structural Engineering &amp; BIM Consultancy</title>
  <desc id="desc">Structural engineering visuals for Dubai and UAE projects.</desc>
  <defs>
    <linearGradient id="bg" x1="0" x2="1" y1="0" y2="1">
      <stop offset="0" stop-color="#0f172a"/>
      <stop offset="1" stop-color="#12284d"/>
    </linearGradient>
    <linearGradient id="accent" x1="0" x2="1" y1="0" y2="0">
      <stop offset="0" stop-color="#2563eb"/>
      <stop offset="1" stop-color="#1d4ed8"/>
    </linearGradient>
  </defs>
  <rect width="1200" height="630" fill="url(#bg)"/>
  <rect x="72" y="96" width="1056" height="438" rx="32" fill="#0b1224" opacity="0.5" stroke="#2563eb" stroke-width="2"/>
  <rect x="72" y="420" width="320" height="8" rx="4" fill="url(#accent)"/>
  <rect x="72" y="444" width="240" height="8" rx="4" fill="#1d4ed8" opacity="0.7"/>
  <text x="96" y="250" fill="#cdd6e1" font-family="Arial, sans-serif" font-size="24" letter-spacing="2">STRUCTURAL ENGINEERING • BIM • APPROVALS</text>
  <text x="96" y="330" fill="#ffffff" font-family="Arial Black, Arial, sans-serif" font-size="64" font-weight="700">StructuralDesign.ae</text>
  <text x="96" y="380" fill="#9fb7f5" font-family="Arial, sans-serif" font-size="28">Design. Analyse. Deliver.</text>
  <g fill="none" stroke="url(#accent)" stroke-width="3" opacity="0.7">
    <polyline points="780,220 920,220 1060,360"/>
    <polyline points="780,340 900,340 980,420"/>
    <polyline points="820,180 920,180 1060,320"/>
  </g>
  <circle cx="1040" cy="180" r="16" fill="#2563eb"/>
  <circle cx="780" cy="220" r="10" fill="#1d4ed8" opacity="0.8"/>
  <circle cx="900" cy="360" r="8" fill="#9fb7f5" opacity="0.8"/>
</svg>
